<svg xmlns="http://www.w3.org/2000/svg" xmlns:xlink="http://www.w3.org/1999/xlink" width="500" zoomAndPan="magnify" viewBox="0 0 375 374.999991" height="500" preserveAspectRatio="xMidYMid meet" version="1.0"><defs><g/></defs><g fill="#e8e8e8" fill-opacity="1"><g transform="translate(100.05059, 168.195936)"><g><path d="M 0.644531 0 L 28.214844 0 L 33.109375 -12.753906 L 63.898438 -12.753906 L 68.796875 0 L 96.492188 0 L 61.453125 -90.179688 L 35.6875 -90.179688 Z M 38.519531 -31.820312 L 48.570312 -59.777344 L 58.617188 -31.820312 Z M 38.519531 -31.820312 "/></g></g></g><g fill="#e8e8e8" fill-opacity="1"><g transform="translate(95.154087, 271.38422)"><g><path d="M 9.828125 0 L 36.65625 0 L 36.65625 -26.429688 L 46.75 -26.429688 L 60.03125 0 L 90.445312 0 L 73.3125 -31.34375 C 83.140625 -36.789062 88.71875 -46.617188 88.71875 -59.632812 C 88.71875 -80.21875 74.773438 -92.96875 52.195312 -92.96875 L 9.828125 -92.96875 Z M 36.125 -47.8125 L 36.125 -71.054688 L 48.609375 -71.054688 C 57.109375 -71.054688 61.757812 -66.9375 61.757812 -59.5 C 61.757812 -52.0625 57.109375 -47.8125 48.609375 -47.8125 Z M 36.125 -47.8125 "/></g></g></g><g fill="#e8e8e8" fill-opacity="1"><g transform="translate(290.920111, 181.253412)"><g><path d="M 0 -9.828125 L 0 -36.390625 L -47.148438 -36.390625 L -22.046875 -54.320312 L -22.046875 -71.71875 L -47.015625 -89.515625 L 0 -89.515625 L 0 -116.078125 L -92.96875 -116.078125 L -92.96875 -94.296875 L -48.742188 -62.953125 L -92.96875 -31.742188 L -92.96875 -9.828125 Z M 0 -9.828125 "/></g></g></g><g fill="#e8e8e8" fill-opacity="1"><g transform="translate(289.522972, 227.742133)"><g><path d="M 0 -9.828125 L 0 -36.65625 L -92.96875 -36.65625 L -92.96875 -9.828125 Z M 0 -9.828125 "/></g></g></g></svg>